<svg id="レイヤー_1" data-name="レイヤー 1" xmlns="http://www.w3.org/2000/svg" viewBox="0 0 84.06 172.8">
  <defs>
    <style>
      .cls-1{fill:#fff;}
    </style>
  </defs>
  <title>meltdown_logo_design_0224</title>
  <path class="cls-1" d="M82.84,35.69c-2.59,17.6.07,23.83,1.64,41.17C85,83,82.54,84,81.18,84c-3,0-6-3.49-4.89-7.4,1.27-4.42,5.61-31.28-5.81-31.28-12.65,0-15,36.58-11,57,1.22,6.29-1.8,10.72-3.73,10.77-2.28,0-3.91-4.74-3.07-10.9,3.14-23.08-1-47.95-14.42-47.95-17.7,0-13.16,72.72-9.52,101,1.39,10.74-3.5,18.13-7.76,18.13-1.91,0-8.39-7.37-6.11-17.53,8.07-36,.57-82.86-11.46-116.49C-5.14,15.43,6.65.56,19.88.53,38.81.5,51.1,25.4,51.1,25.4S50.44,1.36,63.83.53C78.86-.41,84.56,24,82.84,35.69Z" transform="translate(-0.5 -0.5)"/>
</svg>
